<?xml version="1.0" encoding="UTF-8" standalone="no"?>
<svg
   width="100"
   height="42"
   viewBox="0 0 100 42"
   version="1.1"
   id="svg17"
   sodipodi:docname="distribution_logo_light.svg"
   inkscape:version="1.2.2 (b0a8486541, 2022-12-01)"
   xmlns:inkscape="http://www.inkscape.org/namespaces/inkscape"
   xmlns:sodipodi="http://sodipodi.sourceforge.net/DTD/sodipodi-0.dtd"
   xmlns="http://www.w3.org/2000/svg"
   xmlns:svg="http://www.w3.org/2000/svg"
   xmlns:rdf="http://www.w3.org/1999/02/22-rdf-syntax-ns#"
   xmlns:cc="http://creativecommons.org/ns#"
   xmlns:dc="http://purl.org/dc/elements/1.1/">
  <sodipodi:namedview
     id="namedview19"
     pagecolor="#505050"
     bordercolor="#eeeeee"
     borderopacity="1"
     inkscape:showpageshadow="0"
     inkscape:pageopacity="0"
     inkscape:pagecheckerboard="0"
     inkscape:deskcolor="#505050"
     showgrid="false"
     inkscape:zoom="2.7716061"
     inkscape:cx="44.198201"
     inkscape:cy="29.946536"
     inkscape:window-width="1600"
     inkscape:window-height="822"
     inkscape:window-x="0"
     inkscape:window-y="0"
     inkscape:window-maximized="1"
     inkscape:current-layer="svg17" />
  <!-- Generator: Sketch 47 (45396) - http://www.bohemiancoding.com/sketch -->
  <title
     id="title2">logo</title>
  <desc
     id="desc4">Created with Sketch.</desc>
  <defs
     id="defs7">
    <path
       d="m 33,17.5 c 0,0.552285 -0.447715,1 -1,1 H 20 c -1.656854,0 -3,-1.343146 -3,-3 v -7 c 0,-1.6568543 1.343146,-3 3,-3 h 10 c 1.656854,0 3,1.3431457 3,3 v 3 c 0,1.10457 -0.895431,2 -2,2 H 20 v 1 c 0,0.552285 0.447715,1 1,1 h 11 c 0.552285,0 1,0.447715 1,1 z m -13,-7 h 10 v -1 c 0,-0.5522847 -0.447715,-1 -1,-1 h -8 c -0.552285,0 -1,0.4477153 -1,1 z m 30,7 c 0,0.552285 -0.447715,1 -1,1 H 37 c -1.656854,0 -3,-1.343146 -3,-3 v -7 c 0,-1.6568543 1.343146,-3 3,-3 h 10 c 1.656854,0 3,1.3431457 3,3 v 3 c 0,1.10457 -0.895431,2 -2,2 H 37 v 1 c 0,0.552285 0.447715,1 1,1 h 11 c 0.552285,0 1,0.447715 1,1 z m -13,-7 h 10 v -1 c 0,-0.5522847 -0.447715,-1 -1,-1 h -8 c -0.552285,0 -1,0.4477153 -1,1 z m -24,-9 c 0,-0.55228475 0.447715,-1 1,-1 h 1 c 0.552285,0 1,0.44771525 1,1 v 13.995491 l -10e-7,0.0023 c -0.0013,1.656855 -1.345449,2.99897 -3.002304,2.997698 C 10.974543,18.493937 8.9753117,18.49544 7,18.5 1.8507234,18.499028 0.94983889,14 0.98925278,11.623086 1.0286667,9.2461725 1.828601,5.8717201 7,5.5 h 6 z m -5,14 c 1.288068,0.0026 3.954897,-0.0026 5,0 -1.4e-5,-0.801966 -1.4e-5,-6.99528 0,-7 -1.4e-5,0.00472 -3.9804686,0 -5,0 C 6.2319609,8.5 3.9400206,9.3685357 3.9415228,12.000374 3.9425256,14.686287 6.0105184,15.494431 8,15.5 Z m 59,-13 v -1 c 0,-0.55228475 0.447715,-1 1,-1 h 1 c 0.552285,0 1,0.44771525 1,1 v 1 c 0,0.5522848 -0.447715,1 -1,1 h -1 c -0.552285,0 -1,-0.4477152 -1,-1 z m 0,15 v -11 c 0,-0.5522848 0.447715,-1 1,-1 h 1 c 0.552285,0 1,0.4477152 1,1 v 11 c 0,0.552285 -0.447715,1 -1,1 h -1 c -0.552285,0 -1,-0.447715 -1,-1 z m 4,-12 c 0,0.00104 2.666706,0.00127 8.000118,6.754e-4 h 5.57e-4 C 81.761726,5.5006754 84,7.7389493 84,10.5 v 7 c 0,0.552285 -0.447715,1 -1,1 h -1 c -0.552285,0 -1,-0.447715 -1,-1 v -7 c 0,-1.1045695 -0.895431,-2 -2,-2 h -5 v 9 c 0.014,0.474633 0.034,1.077151 -1,1 -0.144,-0.01927 -0.9125,-0.01677 -1,0 -0.855,0.04318 -1,-0.291055 -1,-1 z m -17,16 c 0,0.552285 -0.447715,1 -1,1 h -1 c -0.552285,0 -1,-0.447715 -1,-1 v -14 c 0,-1.1045695 0.895431,-2 2,-2 h 7 c 3.313708,0 6,2.6862915 6,6 v 1 c 0,3.313709 -2.686292,6 -6,6 h -6 z m 9,-10 c 0,-1.6568542 -1.343146,-3 -3,-3 h -6 v 7 h 6 c 1.656854,0 3,-1.343146 3,-3 z"
       id="path-1" />
    <clipPath
       clipPathUnits="userSpaceOnUse"
       id="clipPath2496">
      <path
         id="path2498"
         style="fill:#ff0000;fill-opacity:1;fill-rule:nonzero;stroke:none;stroke-width:0.264583"
         d="M 18.916675,11.750704 V 137.85929 H 87.80911 c -0.0074,-0.42475 0.51563,-1.19538 0.808736,-1.5782 0.606038,-0.79155 1.325732,-1.48694 2.072227,-2.15439 -0.489744,-0.46276 -0.946081,-1.01258 -1.465546,-1.39837 1.57253,-2.728 1.210996,-2.32712 3.891754,-5.07359 -0.165354,-0.11596 -0.32816,-0.23537 -0.490927,-0.35502 -0.26902,0.097 -0.532299,0.10593 -0.769461,-0.045 -0.706622,-0.44915 -1.091821,-0.88486 -1.253154,-1.30017 -0.02685,-0.0198 -0.05448,-0.0383 -0.08113,-0.0584 -0.04346,-0.0327 -0.01992,-0.0772 0.02429,-0.12454 -0.02691,-0.11332 -0.03841,-0.22507 -0.03514,-0.33486 -1.005295,-0.45951 -1.157769,-1.86484 0.05374,-3.00447 -2.007984,1.10914 -1.914472,1.05763 -6.219777,3.38997 -2.425888,1.31421 -3.606393,1.87035 -5.847189,3.39721 -1.29386,0.88163 -1.664483,1.26171 -2.691823,2.18953 -0.404045,0.45771 -0.594699,0.7379 -1.168921,1.05885 -0.32915,0.18398 -0.698371,0.28578 -1.045933,0.43202 -0.239223,0.10066 -0.937053,0.42031 -1.128612,0.47801 -0.344924,0.10384 -0.702159,0.16197 -1.053166,0.24287 -3.49387,0.80558 -4.266154,-3.19966 -0.69815,-3.55378 0.123039,-0.0122 0.250404,-0.002 0.368972,-0.0367 0.05599,-0.0166 1.323549,-0.55177 1.323948,-0.55191 0.0889,-0.0296 0.213085,0.0583 0.280604,-0.006 0.250039,-0.23975 0.470551,-0.50856 0.705901,-0.76274 1.240528,-1.10177 1.649073,-1.51872 3.187919,-2.56212 2.332421,-1.58147 3.549505,-2.16093 6.041491,-3.5109 5.425262,-2.93901 2.556557,-1.36993 7.732863,-4.22196 2.036421,-1.21366 3.854384,-2.22075 5.754169,-3.57549 0.797518,-0.56872 1.546318,-1.2036 2.338877,-1.77922 0.866349,-0.62921 1.735028,-1.25759 2.637048,-1.83452 1.88462,-1.2054 2.77553,-1.54311 4.82089,-2.50941 v 5.3e-4 c 0.60787,-0.28717 1.14643,-0.40186 1.59939,-0.38861 1.96281,0.0575 2.31331,2.51885 -0.31523,3.77497 -0.6461,0.30876 -1.14875,0.54333 -1.62212,0.76998 0.18419,0.10515 0.33685,0.23526 0.45527,0.38344 1.24882,-0.79797 2.46552,-1.57616 2.77296,-1.77251 1.42937,-0.80901 1.32856,-0.88113 2.90008,-1.27847 0.3299,-0.0834 0.66849,-0.16463 1.00872,-0.15761 0.39339,0.008 0.97973,-0.14808 1.16324,0.19998 1.56475,2.96765 0.70432,3.00212 -0.9586,4.82607 -0.29976,0.27311 -0.59471,0.55213 -0.89038,0.82992 1.48216,-0.93047 2.9739,-1.84648 4.44882,-2.78794 0.88111,-0.4569 1.74703,-0.94605 2.61999,-1.42007 V 11.750704 Z M 112.80758,113.6835 c -0.0456,1.4e-4 -0.0872,0.002 -0.11885,0.006 0.0353,0.007 0.075,0.005 0.11885,-0.006 z m -22.087019,11.83184 c 0.0028,0.026 0.006,0.0517 0.0093,0.078 0.0159,-0.0215 0.03216,-0.0426 0.04806,-0.0641 -0.01894,-0.005 -0.03886,-0.008 -0.05736,-0.0139 z m 0.105936,0.59893 c 0.0769,0.30432 0.167032,0.45468 0.21394,0.14417 -0.07173,-0.0474 -0.143309,-0.0951 -0.21394,-0.14417 z m 28.259253,11.65096 c -0.0385,0.031 -0.0786,0.063 -0.1173,0.0941 h 0.1173 z" />
    </clipPath>
    <inkscape:path-effect
       effect="spiro"
       id="path-effect2108"
       is_visible="true"
       lpeversion="1" />
  </defs>
  <text
     xml:space="preserve"
     style="font-style:normal;font-weight:normal;font-size:21.0971px;line-height:1.25;font-family:sans-serif;letter-spacing:0px;word-spacing:0px;fill:#00e7e7;fill-opacity:0.986767;stroke:none;stroke-width:0.527428"
     x="43.98946"
     y="28.217505"
     id="text6047"><tspan
       sodipodi:role="line"
       id="tspan6045"
       x="43.98946"
       y="28.217505"
       style="fill:#00e7e7;fill-opacity:0.986767;stroke-width:0.527428">GXDE</tspan></text>
  <metadata
     id="metadata137">
    <rdf:RDF>
      <cc:Work
         rdf:about="">
        <dc:title>logo</dc:title>
      </cc:Work>
    </rdf:RDF>
  </metadata>
  <ellipse
     id="path131"
     cx="20.807383"
     cy="20.807375"
     style="display:inline;fill:#002424;fill-opacity:1;stroke:#002424;stroke-width:3.7024;stroke-dasharray:none;stroke-opacity:0.919447"
     rx="18.956181"
     ry="18.956175" />
  <path
     style="fill:none;stroke:#ffffff;stroke-width:13.2292;stroke-linecap:butt;stroke-linejoin:miter;stroke-dasharray:none;stroke-opacity:0.27858"
     d="m 49.965371,17.517625 c -8.574017,4.817069 -15.596933,12.34743 -19.80511,21.23614 -5.682222,12.002259 -6.070758,26.325112 -1.393872,38.753652 3.05335,8.114092 8.231677,15.478252 15.104889,20.762228 6.873213,5.283975 15.455006,8.417975 24.124513,8.384795 7.54248,-0.0289 14.993662,-2.42951 21.405881,-6.40107 6.412219,-3.971557 11.808578,-9.473222 16.076488,-15.692129 3.39953,-4.953569 6.15126,-10.514565 6.83003,-16.483981 0.45404,-3.993008 -0.047,-8.101488 -1.52768,-11.837508 -1.48068,-3.736019 -3.94633,-7.088328 -7.12471,-9.547636 -3.17837,-2.459309 -7.066433,-4.009777 -11.07256,-4.327916 -4.006126,-0.318138 -8.114713,0.609691 -11.552476,2.691048 -3.054811,1.849503 -5.544472,4.573154 -7.287187,7.69012 -1.742715,3.116965 -2.752672,6.617887 -3.137106,10.168202 -0.768867,7.100632 0.929904,14.258168 3.393237,20.962056 7.391133,20.114744 21.982226,37.498454 40.511152,48.264644"
     id="path2106"
     inkscape:path-effect="#path-effect2108"
     inkscape:original-d="m 49.965371,17.517625 c -6.601438,7.022773 -13.203142,14.157692 -19.80511,21.23614 -6.601969,7.078448 -0.928984,25.836033 -1.393872,38.753652 -0.464889,12.91762 26.153199,19.431621 39.229402,29.147023 13.076203,9.71543 24.988541,-14.728522 37.482369,-22.093199 12.49388,-7.364685 4.55361,-10.989056 6.83003,-16.483981 C 114.5846,62.582335 91.456848,52.729517 81.030764,45.055248 70.604681,37.380979 76.343657,70.935765 73.999708,83.875626 71.655757,96.815461 101.00739,116.05231 114.51086,132.14027"
     clip-path="url(#clipPath2496)"
     transform="matrix(0.30719552,0,0,0.30719552,-0.38950353,0.65023133)" />
</svg>
