<?xml version="1.0" encoding="UTF-8" standalone="no"?>
<!-- Created with Inkscape (http://www.inkscape.org/) -->

<svg
   width="512"
   height="512"
   viewBox="0 0 135.46667 135.46667"
   version="1.1"
   id="svg5"
   inkscape:version="1.2.2 (b0a8486541, 2022-12-01)"
   sodipodi:docname="gxde.svg"
   xmlns:inkscape="http://www.inkscape.org/namespaces/inkscape"
   xmlns:sodipodi="http://sodipodi.sourceforge.net/DTD/sodipodi-0.dtd"
   xmlns="http://www.w3.org/2000/svg"
   xmlns:svg="http://www.w3.org/2000/svg">
  <sodipodi:namedview
     id="namedview7"
     pagecolor="#505050"
     bordercolor="#eeeeee"
     borderopacity="1"
     inkscape:showpageshadow="0"
     inkscape:pageopacity="0"
     inkscape:pagecheckerboard="0"
     inkscape:deskcolor="#505050"
     inkscape:document-units="mm"
     showgrid="false"
     inkscape:zoom="1.0957492"
     inkscape:cx="259.63971"
     inkscape:cy="276.52313"
     inkscape:window-width="1600"
     inkscape:window-height="822"
     inkscape:window-x="0"
     inkscape:window-y="0"
     inkscape:window-maximized="1"
     inkscape:current-layer="layer3" />
  <defs
     id="defs2">
    <inkscape:path-effect
       effect="spiro"
       id="path-effect2108"
       is_visible="true"
       lpeversion="1" />
    <clipPath
       clipPathUnits="userSpaceOnUse"
       id="clipPath1957">
      <path
         id="path1959"
         style="fill:#ff0000;fill-opacity:1;fill-rule:nonzero;stroke:none;stroke-width:0.264583"
         d="M 19.989478,-26.721882 V 154.26035 H 280.40563 V -26.721882 Z M 75.343721,76.110084 h 5.29e-4 c 0.336145,0.01021 0.724043,0.248991 1.031981,0.798917 0.365511,0.652754 0.0231,0.05855 0.280601,0.473356 0.02969,0.04783 0.135959,0.169137 0.08475,0.145727 -0.269653,-0.123251 -0.898835,-0.719728 -0.763778,-0.455787 0.169555,0.331345 0.56896,0.483325 0.881086,0.686263 -0.01844,-0.04977 -0.03685,-0.09957 -0.0553,-0.149344 0.01876,0.04994 0.101031,0.178961 0.05633,0.149862 -2.64e-4,-2.06e-4 -7.94e-4,-2.27e-4 -0.0011,-5.29e-4 0.05107,0.137922 0.101883,0.276016 0.152961,0.41393 0.0021,0.0028 0.0044,0.0055 0.0067,0.0083 0.128506,-0.335933 0.291838,-0.6101 0.509529,-0.61805 -0.24289,-0.06453 -0.337378,-0.09345 -0.325043,-0.09508 0.02384,-0.0032 0.36617,0.07701 0.421677,0.109035 0.02405,0.0075 0.04864,0.01704 0.0739,0.03101 0.01887,0.0049 0.02683,0.0072 0.04703,0.01241 0.09274,0.0737 0.192239,0.139478 0.278019,0.221174 0.04758,0.04532 0.09784,0.118755 0.144693,0.192754 0.08341,0.08618 0.164849,0.174532 0.240813,0.267168 0.09,0.109741 0.172231,0.2251 0.252698,0.342099 0.208555,-0.144796 0.295199,-0.04035 0.546219,0.463536 5.3e-4,0.0013 7.94e-4,0.0013 0.0011,0.0021 0.162681,0.184176 0.02861,0.01482 0.244427,0.297656 0.07242,0.09836 0.411165,0.556975 0.440285,0.606166 0.155705,0.262983 0.238908,0.541237 0.270267,0.84129 0.04086,0.09446 0.08664,0.186714 0.122473,0.283186 0.01027,0.02768 0.0027,0.06049 0.01497,0.08734 0.120698,0.263768 0.497779,0.240252 0.3576,0.735354 -0.06981,0.246583 -0.134,0.435337 -0.197918,0.582911 0.0329,0.05516 0.06922,0.107855 0.10387,0.161748 0.02876,0.06137 0.146425,0.323363 0.195336,0.393774 0.0047,0.0067 0.0053,-0.02429 0.01291,-0.02119 0.0351,0.01442 0.06266,0.04303 0.09353,0.06511 0.126508,0.09049 0.145399,0.128341 0.09457,0.05064 0.59308,0.404982 0.789051,1.033989 1.182357,1.577165 0.01842,0.02543 0.108603,0.0923 0.133842,0.118338 0.05358,0.05529 0.103706,0.11412 0.155546,0.17105 0.232532,0.268156 0.437041,0.567751 0.607198,0.879015 0.09587,0.175355 0.174834,0.359402 0.262517,0.538985 0.158181,0.323935 0.05667,0.244536 0.196371,0.338998 -0.0064,-0.01238 -0.03036,-0.02901 -0.01913,-0.03721 0.01217,-0.0089 0.02926,0.01106 0.03876,0.02273 0.133665,0.164293 0.268047,0.328157 0.388607,0.502296 0.07841,0.113252 0.137001,0.239098 0.207222,0.3576 0.07375,0.124452 0.148582,0.248597 0.224792,0.371554 0.06113,0.09861 0.124651,0.195723 0.187069,0.293521 0.06328,0.101071 0.118475,0.183764 0.165364,0.278022 0.074,0.07615 0.118886,0.179395 0.177769,0.268716 0.36568,0.55476 -0.07664,-0.06055 0.343648,0.509013 0.02135,0.02752 0.37728,0.481513 0.414962,0.547254 0.07261,0.126677 0.129805,0.262043 0.187069,0.396359 0.10288,0.241305 0.06372,0.251497 0.211873,0.43253 0.05437,0.06004 0.268126,0.294783 0.296106,0.330213 0.07957,0.100769 0.147235,0.210066 0.225824,0.311608 0.185462,0.239633 0.09505,0.0046 0.312645,0.449585 0.05696,0.116486 0.08916,0.243629 0.133839,0.365353 0.11098,0.09433 0.01863,0.274145 0.08578,0.388607 0.0108,0.01844 -0.0011,-0.04271 -0.0016,-0.06408 0.03943,0.073 0.07959,0.145746 0.11834,0.219109 0.341575,0.646642 0.01252,0.03932 0.372587,0.697114 0.06494,0.111403 0.12411,0.226518 0.19482,0.334349 0.402897,0.614378 -0.05424,-0.127606 0.223758,0.270266 0.185018,0.264795 0.3277,0.543854 0.470773,0.831991 0.08949,0.258635 0.193316,0.512476 0.320395,0.754993 0.01696,0.03239 0.02307,0.07688 0.05478,0.09508 0.01111,0.0064 0.0077,-0.0024 5.29e-4,-0.01498 0.05504,0.08575 0.109805,0.171598 0.164849,0.25735 -0.0044,-0.0076 0.03005,0.06093 0.04703,0.09405 0.02799,0.02342 0.05652,0.04594 0.0832,0.07079 0.04908,0.04579 0.08799,0.102084 0.131776,0.152963 0.02286,0.02854 0.04915,0.05406 0.06821,0.08527 0.05595,0.09163 0.114514,0.183152 0.156065,0.282151 0.01529,0.03642 0.04317,0.100018 0.06563,0.157613 0.0044,0.0075 0.0085,0.01519 0.01291,0.02273 0.03365,0.04915 0.07049,0.113128 0.0987,0.170532 0.01138,0.01966 0.02273,0.03927 0.03411,0.05891 5.3e-4,0.0085 0.0029,0.02027 0.0041,0.03049 0.04761,0.143473 0.07059,0.25571 0.07752,0.358635 0.0011,0.0027 0.0021,0.0057 0.0031,0.0083 0.04771,0.12173 0.07785,0.249844 0.116789,0.374655 0.264507,0.847723 -0.32776,0.503508 -0.916741,0.145728 l -0.13901,0.03462 c 0.176422,0.152768 0.285232,0.320567 0.339516,0.487826 0.777134,0.04322 1.48399,0.09581 0.688846,0.309025 -0.22846,0.06126 -0.456841,0.122626 -0.685229,0.183967 -0.173823,0.540571 -0.929119,0.867797 -1.766819,0.250114 -0.333121,-0.245632 -0.135128,-0.133252 -0.434596,-0.452168 0.02633,0.05124 0.04905,0.09743 0.05994,0.125574 0.04576,0.118285 -0.322287,-0.390382 -0.232029,-0.301273 0.07151,0.0706 0.126859,0.127542 0.172085,0.175699 -0.116205,-0.226213 -0.333873,-0.590166 -0.249598,-0.360701 0.04126,0.0458 0.142582,0.189629 0.102836,0.145208 -0.03272,-0.03655 -0.06224,-0.07464 -0.09095,-0.113686 0.0033,0.0085 0.0054,0.01466 0.0093,0.02429 -0.0029,-0.0073 -0.0089,-0.01995 -0.01447,-0.03152 -0.140999,-0.193914 -0.239358,-0.414147 -0.343649,-0.629936 -0.08983,-0.1782 -0.183129,-0.350997 -0.28112,-0.524516 -0.02275,-0.04028 -0.04453,-0.08095 -0.06666,-0.121438 -0.05707,-0.01955 -0.128421,-0.04701 -0.219623,-0.08062 -0.290589,-0.107072 -0.407567,-0.21078 -0.410829,-0.312126 -0.191225,-0.182303 -0.407887,-0.422976 -0.48214,-0.512112 -0.554135,-0.665202 -0.948338,-1.4352 -1.306899,-2.21847 l -0.112654,-0.261999 c -0.122801,-0.190915 -0.215683,-0.340204 -0.267684,-0.423748 -0.06443,-0.02289 -0.131083,-0.0413 -0.190169,-0.07441 -0.08745,-0.04901 -0.103585,-0.172286 -0.147278,-0.262515 -0.07395,-0.152722 -0.134284,-0.311428 -0.205155,-0.465606 -0.439272,-0.955653 -0.478052,-1.006242 -1.006139,-2.058273 -0.140833,-0.239429 -0.195699,-0.333478 -0.290423,-0.495059 -0.02665,-0.02373 -0.05392,-0.04654 -0.08217,-0.06666 -0.202081,-0.196974 -0.426006,-0.373975 -0.606163,-0.591179 -0.693132,-0.83566 -0.995154,-1.438971 -1.513602,-2.410706 -0.05696,-0.106768 -0.112652,-0.214054 -0.168466,-0.321427 -0.101928,-0.133903 -0.205589,-0.271909 -0.314192,-0.421164 -0.290571,-0.399322 -0.563952,-0.810802 -0.832509,-1.225248 -0.169643,-0.2618 -0.329787,-0.530024 -0.481624,-0.802534 -0.06429,-0.115377 -0.259,-0.265999 -0.16588,-0.359667 0.06566,-0.06605 0.13536,-0.127188 0.207737,-0.185002 -0.0026,-0.0048 -0.0052,-0.0096 -0.0078,-0.01447 -0.110143,-0.210757 -0.207171,-0.427755 -0.30851,-0.642856 -0.009,-0.0062 -0.02013,-0.0083 -0.02894,-0.01498 -0.214233,-0.161997 -0.281996,-0.469133 -0.335896,-0.732256 -0.0547,-0.267028 -0.05299,-0.562491 -0.02326,-0.862997 -0.0075,-0.0099 -0.01648,-0.01881 -0.02376,-0.02894 -0.02008,-0.0279 -0.02058,-0.06778 -0.04393,-0.09302 -0.09047,-0.09783 -0.198829,-0.17807 -0.293521,-0.27182 -0.112104,-0.110982 -0.173876,-0.289957 -0.297656,-0.383437 -0.20892,-0.387662 -0.199864,-0.34218 -0.368454,-0.804087 -0.04224,-0.115702 -0.06995,-0.236344 -0.111103,-0.352433 -0.04364,-0.12311 -0.09191,-0.244684 -0.143145,-0.364836 -0.06879,-0.161338 -0.164053,-0.312349 -0.217041,-0.479558 -0.01148,-0.0362 0.05859,0.04866 0.08785,0.07286 -0.05883,-0.101968 -0.268139,-0.325972 -0.22841,-0.348298 -0.04836,-0.07639 -0.09901,-0.151219 -0.145211,-0.228928 -0.045,-0.07568 -0.08471,-0.154347 -0.127124,-0.23151 -0.539692,-0.981932 -0.147048,-1.722654 0.437184,-1.758032 0.02191,-0.0013 0.04425,-0.0016 0.06666,-0.0011 z m 2.280997,1.466575 c -0.03328,-0.01032 -0.06558,-0.01508 -0.09663,-0.01394 0.03154,0.0084 0.06591,0.0176 0.103354,0.02739 5.29e-4,-0.0019 0.0016,-0.0038 0.0021,-0.0057 5.29e-4,-0.0021 -0.0034,-0.0046 -0.0088,-0.0078 z m 1.529106,1.46296 c -0.0042,-0.0046 0.0047,0.0123 0.0088,0.01707 0.01622,0.01871 0.01767,0.0195 0.03049,0.03411 -0.01273,-0.0173 -0.02962,-0.04051 -0.03927,-0.05116 z m 0.918808,2.268596 c 0.02058,0.04875 0.04322,0.09643 0.077,0.136427 0.01101,0.01302 0.05267,-0.0073 0.04547,-0.02273 -0.02172,-0.04671 -0.07154,-0.0737 -0.107487,-0.110588 -0.0057,-0.0011 -0.0094,-0.0021 -0.01498,-0.0031 z m -14.899349,0.19327 c 0.109633,-1.9e-4 0.237495,0.02886 0.381889,0.09147 0.216117,-0.05052 0.451776,-0.01365 0.66611,0.137459 0.197255,0.139083 0.271788,0.400669 0.429429,0.583427 0.04309,0.04995 -0.02164,-0.0822 -0.08061,-0.174149 0.01222,0.01416 0.02445,0.02822 0.03669,0.04238 -0.0011,-0.0011 -0.0013,-0.0011 0,0.0011 0.0608,0.09024 0.126423,0.177171 0.186034,0.268201 0.0054,0.0082 -0.0049,0.02125 0.0011,0.02946 0.05275,0.07881 0.109223,0.154995 0.163814,0.232545 0.05712,0.127365 0.13176,0.262151 0.22996,0.363283 0.04293,0.04421 0.09363,0.08006 0.141076,0.119372 0.48899,0.405048 0.231886,0.143277 0.690914,0.748792 0.241332,0.723339 0.107186,0.211185 0.187069,0.744143 0.01791,0.119412 0.115448,0.247277 0.06408,0.356566 -0.0309,0.06573 -0.09981,-0.110297 -0.164849,-0.142626 -0.07509,-0.03732 -0.142742,-0.06979 -0.203604,-0.09818 -0.0084,0.01791 -0.05597,0.02885 -0.12454,0.03514 5.29e-4,0.0026 0.0011,0.0051 0.0016,0.0078 -0.0013,-0.0024 -0.0024,-0.0049 -0.0036,-0.0072 -0.08475,0.0076 -0.201771,0.008 -0.31936,0.0057 0.07553,0.245218 0.346099,0.739973 0.578776,1.470194 -0.03701,0.0032 -0.07412,0.0065 -0.111107,0.0098 0.0436,0.134781 0.08165,0.271275 0.112655,0.409279 0.08885,0.395531 0.130685,0.800327 0.195855,1.200443 0.288208,1.769441 -1.529453,2.052339 -1.789554,0.278535 -0.05945,-0.405445 -0.114232,-1.049036 -0.282155,-1.473292 -0.08548,-0.215969 -0.208309,-0.415214 -0.309541,-0.624253 -0.07362,-0.152024 -0.143333,-0.30593 -0.214974,-0.458885 -0.07347,-0.17576 -0.161041,-0.346015 -0.220141,-0.527101 -0.04278,-0.131077 -0.05788,-0.269708 -0.08372,-0.405143 -0.0011,-0.0057 0.0082,0.02008 0.0093,0.01447 0.0027,-0.01318 -0.006,-0.02699 -0.0041,-0.04031 5.29e-4,-0.0033 0.01114,0.0047 0.0098,0.0016 -0.0296,-0.07847 -0.06487,-0.154618 -0.09715,-0.232027 -0.117115,-0.317902 -0.154228,-0.396107 -0.241848,-0.737423 -0.02865,-0.111595 -0.04793,-0.225771 -0.07183,-0.338481 0.0019,-0.02413 0.01035,-0.04859 0.0057,-0.07235 -0.111358,-0.566986 -0.09904,-0.243138 -0.102836,-0.520898 -0.003,-0.02043 -0.0052,-0.04085 -0.0072,-0.06098 -0.26746,-0.707554 -0.125831,-1.236834 0.341066,-1.237649 z m 2.606043,3.346567 c 0.0131,0.0249 0.02548,0.05009 0.03514,0.07648 0.008,0.02204 0.0041,0.09244 -0.0036,0.07028 -0.0164,-0.04722 -0.02341,-0.09725 -0.03152,-0.146759 z m 21.076748,11.07581 c -0.0028,-0.0016 -0.0011,-8e-6 0.0067,0.0062 0.02823,0.02225 0.05644,0.04445 0.08475,0.06666 -0.03504,-0.03236 -0.08302,-0.06772 -0.09147,-0.07286 z m -2.571935,1.027843 c -0.003,0.05833 -0.0055,0.106984 -0.0093,0.145727 0.178287,0.06387 0.342117,0.116303 0.253733,0.04186 -0.09671,-0.08145 -0.169889,-0.133535 -0.24443,-0.187584 z m 6.823874,5.163505 c 0.05699,-0.002 0.137345,0.0384 0.247012,0.13385 0.231071,0.005 0.497626,0.0694 0.791684,0.21755 0.280757,0.14144 0.420245,0.20161 0.686779,0.37879 0.562943,0.37424 0.646199,0.64678 0.01085,1.52549 0.0055,0.0389 0.01127,0.0786 0.02066,0.14986 0.05141,0.41828 0.01482,0.22078 0.103355,0.5948 0.412972,1.74455 -1.397612,2.14468 -1.768369,0.39067 -0.0467,-0.22095 -0.04133,-0.25066 -0.05374,-0.31057 -0.69569,0.37787 -0.911479,0.0332 -1.15652,-0.4067 -0.01056,0.004 -0.02336,-0.025 -0.03669,-0.0661 l -5.29e-4,-5.3e-4 c -0.0209,-0.0375 -0.04211,-0.0756 -0.06408,-0.11369 -0.02692,-0.0932 -0.05535,-0.18573 -0.08372,-0.27853 -0.03918,-0.0883 -0.04126,-0.0869 -0.157612,-0.30748 -0.02252,-0.011 -0.04537,-0.0221 -0.06821,-0.0341 -0.124399,-0.0652 -0.280302,-0.2992 -0.169497,-0.3855 0.06076,-0.0473 0.114448,-0.0898 0.170013,-0.13333 -0.112432,-0.53521 -0.13489,-0.58535 0.558107,-0.57567 0.03995,-0.0434 0.08404,-0.0808 0.131257,-0.11162 -0.09863,-0.0293 -0.192799,-0.0681 -0.278019,-0.12609 -0.130828,-0.0885 0.310428,-0.0617 0.465606,-0.0925 0.0067,-2.6e-4 0.07599,-0.003 0.155028,-0.006 0.08983,-0.11526 0.218929,-0.20412 0.379822,-0.25683 0.01082,-0.1132 0.04555,-0.18314 0.11679,-0.18604 z" />
    </clipPath>
    <clipPath
       clipPathUnits="userSpaceOnUse"
       id="clipPath2496">
      <path
         id="path2498"
         style="fill:#ff0000;fill-opacity:1;fill-rule:nonzero;stroke:none;stroke-width:0.264583"
         d="M 18.916675,11.750704 V 137.85929 H 87.80911 c -0.0074,-0.42475 0.51563,-1.19538 0.808736,-1.5782 0.606038,-0.79155 1.325732,-1.48694 2.072227,-2.15439 -0.489744,-0.46276 -0.946081,-1.01258 -1.465546,-1.39837 1.57253,-2.728 1.210996,-2.32712 3.891754,-5.07359 -0.165354,-0.11596 -0.32816,-0.23537 -0.490927,-0.35502 -0.26902,0.097 -0.532299,0.10593 -0.769461,-0.045 -0.706622,-0.44915 -1.091821,-0.88486 -1.253154,-1.30017 -0.02685,-0.0198 -0.05448,-0.0383 -0.08113,-0.0584 -0.04346,-0.0327 -0.01992,-0.0772 0.02429,-0.12454 -0.02691,-0.11332 -0.03841,-0.22507 -0.03514,-0.33486 -1.005295,-0.45951 -1.157769,-1.86484 0.05374,-3.00447 -2.007984,1.10914 -1.914472,1.05763 -6.219777,3.38997 -2.425888,1.31421 -3.606393,1.87035 -5.847189,3.39721 -1.29386,0.88163 -1.664483,1.26171 -2.691823,2.18953 -0.404045,0.45771 -0.594699,0.7379 -1.168921,1.05885 -0.32915,0.18398 -0.698371,0.28578 -1.045933,0.43202 -0.239223,0.10066 -0.937053,0.42031 -1.128612,0.47801 -0.344924,0.10384 -0.702159,0.16197 -1.053166,0.24287 -3.49387,0.80558 -4.266154,-3.19966 -0.69815,-3.55378 0.123039,-0.0122 0.250404,-0.002 0.368972,-0.0367 0.05599,-0.0166 1.323549,-0.55177 1.323948,-0.55191 0.0889,-0.0296 0.213085,0.0583 0.280604,-0.006 0.250039,-0.23975 0.470551,-0.50856 0.705901,-0.76274 1.240528,-1.10177 1.649073,-1.51872 3.187919,-2.56212 2.332421,-1.58147 3.549505,-2.16093 6.041491,-3.5109 5.425262,-2.93901 2.556557,-1.36993 7.732863,-4.22196 2.036421,-1.21366 3.854384,-2.22075 5.754169,-3.57549 0.797518,-0.56872 1.546318,-1.2036 2.338877,-1.77922 0.866349,-0.62921 1.735028,-1.25759 2.637048,-1.83452 1.88462,-1.2054 2.77553,-1.54311 4.82089,-2.50941 v 5.3e-4 c 0.60787,-0.28717 1.14643,-0.40186 1.59939,-0.38861 1.96281,0.0575 2.31331,2.51885 -0.31523,3.77497 -0.6461,0.30876 -1.14875,0.54333 -1.62212,0.76998 0.18419,0.10515 0.33685,0.23526 0.45527,0.38344 1.24882,-0.79797 2.46552,-1.57616 2.77296,-1.77251 1.42937,-0.80901 1.32856,-0.88113 2.90008,-1.27847 0.3299,-0.0834 0.66849,-0.16463 1.00872,-0.15761 0.39339,0.008 0.97973,-0.14808 1.16324,0.19998 1.56475,2.96765 0.70432,3.00212 -0.9586,4.82607 -0.29976,0.27311 -0.59471,0.55213 -0.89038,0.82992 1.48216,-0.93047 2.9739,-1.84648 4.44882,-2.78794 0.88111,-0.4569 1.74703,-0.94605 2.61999,-1.42007 V 11.750704 Z M 112.80758,113.6835 c -0.0456,1.4e-4 -0.0872,0.002 -0.11885,0.006 0.0353,0.007 0.075,0.005 0.11885,-0.006 z m -22.087019,11.83184 c 0.0028,0.026 0.006,0.0517 0.0093,0.078 0.0159,-0.0215 0.03216,-0.0426 0.04806,-0.0641 -0.01894,-0.005 -0.03886,-0.008 -0.05736,-0.0139 z m 0.105936,0.59893 c 0.0769,0.30432 0.167032,0.45468 0.21394,0.14417 -0.07173,-0.0474 -0.143309,-0.0951 -0.21394,-0.14417 z m 28.259253,11.65096 c -0.0385,0.031 -0.0786,0.063 -0.1173,0.0941 h 0.1173 z" />
    </clipPath>
  </defs>
  <g
     inkscape:groupmode="layer"
     id="layer2"
     inkscape:label="图层 2"
     style="display:inline">
    <ellipse
       id="path131"
       cx="67.733376"
       cy="67.73336"
       style="fill:#002424;fill-opacity:1;stroke:#002424;stroke-width:12.0523;stroke-dasharray:none;stroke-opacity:0.919447"
       rx="61.707222"
       ry="61.707207" />
  </g>
  <g
     inkscape:groupmode="layer"
     id="layer3"
     inkscape:label="图层 3">
    <path
       style="fill:none;stroke:#ffffff;stroke-width:13.2292;stroke-linecap:butt;stroke-linejoin:miter;stroke-dasharray:none;stroke-opacity:0.27858"
       d="m 49.965371,17.517625 c -8.574017,4.817069 -15.596933,12.34743 -19.80511,21.23614 -5.682222,12.002259 -6.070758,26.325112 -1.393872,38.753652 3.05335,8.114092 8.231677,15.478252 15.104889,20.762228 6.873213,5.283975 15.455006,8.417975 24.124513,8.384795 7.54248,-0.0289 14.993662,-2.42951 21.405881,-6.40107 6.412219,-3.971557 11.808578,-9.473222 16.076488,-15.692129 3.39953,-4.953569 6.15126,-10.514565 6.83003,-16.483981 0.45404,-3.993008 -0.047,-8.101488 -1.52768,-11.837508 -1.48068,-3.736019 -3.94633,-7.088328 -7.12471,-9.547636 -3.17837,-2.459309 -7.066433,-4.009777 -11.07256,-4.327916 -4.006126,-0.318138 -8.114713,0.609691 -11.552476,2.691048 -3.054811,1.849503 -5.544472,4.573154 -7.287187,7.69012 -1.742715,3.116965 -2.752672,6.617887 -3.137106,10.168202 -0.768867,7.100632 0.929904,14.258168 3.393237,20.962056 7.391133,20.114744 21.982226,37.498454 40.511152,48.264644"
       id="path2106"
       inkscape:path-effect="#path-effect2108"
       inkscape:original-d="m 49.965371,17.517625 c -6.601438,7.022773 -13.203142,14.157692 -19.80511,21.23614 -6.601969,7.078448 -0.928984,25.836033 -1.393872,38.753652 -0.464889,12.91762 26.153199,19.431621 39.229402,29.147023 13.076203,9.71543 24.988541,-14.728522 37.482369,-22.093199 12.49388,-7.364685 4.55361,-10.989056 6.83003,-16.483981 C 114.5846,62.582335 91.456848,52.729517 81.030764,45.055248 70.604681,37.380979 76.343657,70.935765 73.999708,83.875626 71.655757,96.815461 101.00739,116.05231 114.51086,132.14027"
       clip-path="url(#clipPath2496)"
       transform="translate(-1.2679083,2.1166667)" />
  </g>
</svg>
