<svg width="2572.267578" height="429.117676" viewBox="0 0 2572.27 429.118" fill="none" xmlns="http://www.w3.org/2000/svg" xmlns:xlink="http://www.w3.org/1999/xlink">
	<desc>
			Created with Pixso.
	</desc>
	<defs/>
	<path id="矢量 19" d="M447.94 429.11C509.47 429.11 559.86 378.72 559.86 317.2L559.86 191.22L280.07 191.22L280.07 247.18L503.9 247.18L503.9 317.2C503.9 348.55 479.59 373.16 447.94 373.16L111.91 373.16C80.27 373.16 55.95 348.55 55.95 317.2L55.95 112.2C55.95 80.56 80.27 56.25 111.91 56.25L447.94 56.25C479.59 56.25 503.9 80.56 503.9 112.2L559.86 112.2C559.86 50.39 509.47 0 447.94 0L111.91 0C50.39 0 0 50.39 0 112.2L0 317.2C0 378.72 50.39 429.11 111.91 429.11L447.94 429.11Z" fill="#000000" fill-opacity="1.000000" fill-rule="nonzero"/>
	<path id="矢量 19" d="M1858.01 420.52C1919.53 420.52 1969.92 370.13 1969.92 308.61L1969.92 112.61C1969.92 50.8 1919.53 0.41 1858.01 0.41L1410.06 0.41L1410.06 420.52L1858.01 420.52ZM1858.01 364.57L1466.02 364.57L1466.02 56.66L1858.01 56.66C1889.65 56.66 1913.97 80.97 1913.97 112.61L1913.97 308.61C1913.97 339.96 1889.65 364.57 1858.01 364.57Z" fill="#000000" fill-opacity="1.000000" fill-rule="nonzero"/>
	<path id="矢量 19" d="M2572.27 420.52L2572.27 364.57L2110.26 364.57L2110.26 238.59L2516.31 238.59L2516.31 182.63L2110.26 182.63L2110.26 56.66L2572.27 56.66L2572.27 0.41L2054.3 0.41L2054.3 420.52L2572.27 420.52Z" fill="#000000" fill-opacity="1.000000" fill-rule="nonzero"/>
	<path id="矢量 19" d="M1183.73 420.11L946.12 210.05L903.94 172.85C773.27 57.71 838.6 115.43 708.23 0L623.86 0L861.75 210.05L623.86 420.11L708.23 420.11L903.94 247.26L1099.64 420.11L1183.73 420.11ZM976.2 183.47L1183.73 0L1099.64 0L934.27 146.06L976.2 183.47Z" fill="#000000" fill-opacity="1.000000" fill-rule="evenodd"/>
	<path id="矢量 19" d="M1090.38 210.05L1327.97 420.11L1243.89 420.11L1048.18 247.26L1006 210.05L1048.18 172.85L1243.89 0L1327.97 0L1090.38 210.05Z" fill="#F24A4A" fill-opacity="1.000000" fill-rule="evenodd"/>
</svg>
