<?xml version="1.0" encoding="UTF-8" standalone="no"?>
<!-- Created with Inkscape (http://www.inkscape.org/) -->

<svg
   width="5760"
   height="4320"
   viewBox="0 0 1524 1143"
   version="1.1"
   id="svg5"
   inkscape:version="1.2.2 (b0a8486541, 2022-12-01)"
   sodipodi:docname="wallpaper-green-4.3.svg"
   inkscape:export-filename="wallpaper-green-800x600.png"
   inkscape:export-xdpi="50.3937"
   inkscape:export-ydpi="50.3937"
   xmlns:inkscape="http://www.inkscape.org/namespaces/inkscape"
   xmlns:sodipodi="http://sodipodi.sourceforge.net/DTD/sodipodi-0.dtd"
   xmlns="http://www.w3.org/2000/svg"
   xmlns:svg="http://www.w3.org/2000/svg">
  <sodipodi:namedview
     id="namedview7"
     pagecolor="#505050"
     bordercolor="#ffffff"
     borderopacity="1"
     inkscape:showpageshadow="0"
     inkscape:pageopacity="0"
     inkscape:pagecheckerboard="1"
     inkscape:deskcolor="#505050"
     inkscape:document-units="mm"
     showgrid="false"
     inkscape:zoom="0.13630051"
     inkscape:cx="3004.3908"
     inkscape:cy="2193.6822"
     inkscape:window-width="1600"
     inkscape:window-height="822"
     inkscape:window-x="0"
     inkscape:window-y="0"
     inkscape:window-maximized="1"
     inkscape:current-layer="layer1" />
  <defs
     id="defs2">
    <inkscape:path-effect
       effect="bspline"
       id="path-effect6635"
       is_visible="true"
       lpeversion="1"
       weight="33.333333"
       steps="2"
       helper_size="0"
       apply_no_weight="true"
       apply_with_weight="true"
       only_selected="false" />
    <inkscape:path-effect
       effect="bspline"
       id="path-effect6631"
       is_visible="true"
       lpeversion="1"
       weight="33.333333"
       steps="2"
       helper_size="0"
       apply_no_weight="true"
       apply_with_weight="true"
       only_selected="false" />
    <inkscape:path-effect
       effect="bspline"
       id="path-effect5475"
       is_visible="true"
       lpeversion="1"
       weight="33.333333"
       steps="2"
       helper_size="0"
       apply_no_weight="true"
       apply_with_weight="true"
       only_selected="false" />
    <inkscape:path-effect
       effect="bspline"
       id="path-effect5471"
       is_visible="true"
       lpeversion="1"
       weight="33.333333"
       steps="2"
       helper_size="0"
       apply_no_weight="true"
       apply_with_weight="true"
       only_selected="false" />
    <inkscape:path-effect
       effect="bspline"
       id="path-effect5467"
       is_visible="true"
       lpeversion="1"
       weight="33.333333"
       steps="2"
       helper_size="0"
       apply_no_weight="true"
       apply_with_weight="true"
       only_selected="false" />
    <inkscape:path-effect
       effect="bspline"
       id="path-effect5463"
       is_visible="true"
       lpeversion="1"
       weight="33.333333"
       steps="2"
       helper_size="0"
       apply_no_weight="true"
       apply_with_weight="true"
       only_selected="false" />
    <inkscape:path-effect
       effect="bspline"
       id="path-effect5467-6"
       is_visible="true"
       lpeversion="1"
       weight="33.333333"
       steps="2"
       helper_size="0"
       apply_no_weight="true"
       apply_with_weight="true"
       only_selected="false" />
    <inkscape:path-effect
       effect="bspline"
       id="path-effect5475-7"
       is_visible="true"
       lpeversion="1"
       weight="33.333333"
       steps="2"
       helper_size="0"
       apply_no_weight="true"
       apply_with_weight="true"
       only_selected="false" />
    <inkscape:path-effect
       effect="bspline"
       id="path-effect5471-5"
       is_visible="true"
       lpeversion="1"
       weight="33.333333"
       steps="2"
       helper_size="0"
       apply_no_weight="true"
       apply_with_weight="true"
       only_selected="false" />
    <clipPath
       clipPathUnits="userSpaceOnUse"
       id="clipPath2496">
      <path
         id="path2498"
         style="fill:#ff0000;fill-opacity:1;fill-rule:nonzero;stroke:none;stroke-width:0.264583"
         d="M 18.916675,11.750704 V 137.85929 H 87.80911 c -0.0074,-0.42475 0.51563,-1.19538 0.808736,-1.5782 0.606038,-0.79155 1.325732,-1.48694 2.072227,-2.15439 -0.489744,-0.46276 -0.946081,-1.01258 -1.465546,-1.39837 1.57253,-2.728 1.210996,-2.32712 3.891754,-5.07359 -0.165354,-0.11596 -0.32816,-0.23537 -0.490927,-0.35502 -0.26902,0.097 -0.532299,0.10593 -0.769461,-0.045 -0.706622,-0.44915 -1.091821,-0.88486 -1.253154,-1.30017 -0.02685,-0.0198 -0.05448,-0.0383 -0.08113,-0.0584 -0.04346,-0.0327 -0.01992,-0.0772 0.02429,-0.12454 -0.02691,-0.11332 -0.03841,-0.22507 -0.03514,-0.33486 -1.005295,-0.45951 -1.157769,-1.86484 0.05374,-3.00447 -2.007984,1.10914 -1.914472,1.05763 -6.219777,3.38997 -2.425888,1.31421 -3.606393,1.87035 -5.847189,3.39721 -1.29386,0.88163 -1.664483,1.26171 -2.691823,2.18953 -0.404045,0.45771 -0.594699,0.7379 -1.168921,1.05885 -0.32915,0.18398 -0.698371,0.28578 -1.045933,0.43202 -0.239223,0.10066 -0.937053,0.42031 -1.128612,0.47801 -0.344924,0.10384 -0.702159,0.16197 -1.053166,0.24287 -3.49387,0.80558 -4.266154,-3.19966 -0.69815,-3.55378 0.123039,-0.0122 0.250404,-0.002 0.368972,-0.0367 0.05599,-0.0166 1.323549,-0.55177 1.323948,-0.55191 0.0889,-0.0296 0.213085,0.0583 0.280604,-0.006 0.250039,-0.23975 0.470551,-0.50856 0.705901,-0.76274 1.240528,-1.10177 1.649073,-1.51872 3.187919,-2.56212 2.332421,-1.58147 3.549505,-2.16093 6.041491,-3.5109 5.425262,-2.93901 2.556557,-1.36993 7.732863,-4.22196 2.036421,-1.21366 3.854384,-2.22075 5.754169,-3.57549 0.797518,-0.56872 1.546318,-1.2036 2.338877,-1.77922 0.866349,-0.62921 1.735028,-1.25759 2.637048,-1.83452 1.88462,-1.2054 2.77553,-1.54311 4.82089,-2.50941 v 5.3e-4 c 0.60787,-0.28717 1.14643,-0.40186 1.59939,-0.38861 1.96281,0.0575 2.31331,2.51885 -0.31523,3.77497 -0.6461,0.30876 -1.14875,0.54333 -1.62212,0.76998 0.18419,0.10515 0.33685,0.23526 0.45527,0.38344 1.24882,-0.79797 2.46552,-1.57616 2.77296,-1.77251 1.42937,-0.80901 1.32856,-0.88113 2.90008,-1.27847 0.3299,-0.0834 0.66849,-0.16463 1.00872,-0.15761 0.39339,0.008 0.97973,-0.14808 1.16324,0.19998 1.56475,2.96765 0.70432,3.00212 -0.9586,4.82607 -0.29976,0.27311 -0.59471,0.55213 -0.89038,0.82992 1.48216,-0.93047 2.9739,-1.84648 4.44882,-2.78794 0.88111,-0.4569 1.74703,-0.94605 2.61999,-1.42007 V 11.750704 Z M 112.80758,113.6835 c -0.0456,1.4e-4 -0.0872,0.002 -0.11885,0.006 0.0353,0.007 0.075,0.005 0.11885,-0.006 z m -22.087019,11.83184 c 0.0028,0.026 0.006,0.0517 0.0093,0.078 0.0159,-0.0215 0.03216,-0.0426 0.04806,-0.0641 -0.01894,-0.005 -0.03886,-0.008 -0.05736,-0.0139 z m 0.105936,0.59893 c 0.0769,0.30432 0.167032,0.45468 0.21394,0.14417 -0.07173,-0.0474 -0.143309,-0.0951 -0.21394,-0.14417 z m 28.259253,11.65096 c -0.0385,0.031 -0.0786,0.063 -0.1173,0.0941 h 0.1173 z" />
    </clipPath>
    <inkscape:path-effect
       effect="spiro"
       id="path-effect2108"
       is_visible="true"
       lpeversion="1" />
  </defs>
  <g
     inkscape:groupmode="layer"
     id="layer2"
     inkscape:label="背景">
    <rect
       id="rect1583"
       width="2032"
       height="1142.9"
       x="0"
       y="-2.8421709e-14"
       style="fill:#002323;fill-opacity:1;stroke-width:0.0745587" />
  </g>
  <g
     inkscape:groupmode="layer"
     id="layer3"
     inkscape:label="mountain">
    <path
       style="fill:#001a1a;fill-opacity:1;stroke:#000000;stroke-width:0.264583px;stroke-linecap:butt;stroke-linejoin:miter;stroke-opacity:1"
       d="M 226.23022,1284.465 C 404.25702,900.75195 582.2839,517.03874 702.3321,330.79069 822.3803,144.54263 884.4471,155.7593 985.40451,168.5316 c 100.95739,12.7723 240.79929,27.09953 264.19819,123.47668 23.3988,96.37715 -69.6443,274.7966 -162.6892,453.21967"
       id="path6633"
       inkscape:path-effect="#path-effect6635"
       inkscape:original-d="M 226.23022,1284.465 C 404.25724,900.75205 582.28413,517.03885 760.3108,133.32547 c 62.06947,11.21731 124.13627,22.43398 186.20411,33.65069 139.84699,14.32796 279.68889,28.65522 419.53349,42.98246 -93.0467,178.42691 -186.0897,356.84639 -279.1349,535.26933" />
    <path
       style="fill:#001a1a;fill-opacity:1;stroke:#000000;stroke-width:0.264583px;stroke-linecap:butt;stroke-linejoin:miter;stroke-opacity:1"
       d="M -437.09913,736.46905 C -289.10146,498.58983 -141.10374,260.71054 -32.865645,205.69867 75.372448,150.6868 143.84792,278.53699 186.05686,486.13029 c 42.20893,207.59329 58.14945,494.91563 74.09027,782.24341"
       id="path6629"
       inkscape:path-effect="#path-effect6631"
       inkscape:original-d="M -437.09913,736.46905 C -289.10117,498.59001 -141.10346,260.71071 6.8940448,22.831142 75.372559,150.68674 143.848,278.53695 212.32462,406.38946 c 15.94141,287.33411 31.88192,574.65645 47.82251,861.98424" />
    <path
       style="fill:#001f1f;fill-opacity:1;stroke:#000000;stroke-width:0.264583px;stroke-linecap:butt;stroke-linejoin:miter;stroke-opacity:1"
       d="M -114.53045,1148.6451 C -82.289819,810.95298 -50.049163,473.26059 66.379582,303.38818 182.80833,133.51577 383.41695,131.46364 536.00706,301.97287 688.59717,472.48211 793.16077,815.53868 897.72636,1158.6018"
       id="path5465"
       inkscape:path-effect="#path-effect5467-6"
       inkscape:original-d="M -114.53045,1148.6451 C -82.289489,810.95301 -50.048859,473.26062 -17.808487,135.56799 182.80833,133.51604 383.41695,131.46391 584.02929,129.41147 688.59733,472.48206 793.1609,815.53864 897.72636,1158.6018" />
    <path
       style="fill:#002929;fill-opacity:1;stroke:#000000;stroke-width:0.264583px;stroke-linecap:butt;stroke-linejoin:miter;stroke-opacity:1"
       d="M 370.57307,1160.4539 C 608.72956,734.45958 846.88614,308.46508 1135.5095,134.48466 c 288.6234,-173.980424 627.6998,-95.950206 805.8176,124.83566 178.1177,220.78587 195.2695,584.31107 212.4217,947.84318"
       id="path5473"
       inkscape:path-effect="#path-effect5475-7"
       inkscape:original-d="M 370.57307,1160.4539 C 608.73005,734.45985 846.8868,308.46545 1085.0426,-117.52919 c 339.0903,78.033611 678.1667,156.063838 1017.2497,234.09537 17.1528,363.54 34.3046,727.0652 51.4565,1090.59732" />
    <path
       style="fill:#002e2e;fill-opacity:1;stroke:#000000;stroke-width:0.264583px;stroke-linecap:butt;stroke-linejoin:miter;stroke-opacity:1"
       d="M 976.97886,1152.0491 C 1217.5908,871.32055 1458.203,590.59156 1662.3198,423.21072 c 204.1168,-167.38085 371.728,-221.4103 448.0195,-83.83755 76.2915,137.57276 61.2541,466.73751 58.1221,646.73424 -3.1321,179.99669 5.6411,210.81769 14.4144,241.63889"
       id="path5469"
       inkscape:original-d="M 976.97886,1152.0491 C 1217.5908,871.32058 1458.2032,590.59171 1698.8153,309.86258 1866.4367,255.8302 2034.0479,201.80074 2201.6688,147.7678 c -15.0377,329.17814 -30.0751,658.34289 -45.1131,987.5139 8.7738,30.8224 17.547,61.6433 26.3201,92.4646"
       inkscape:path-effect="#path-effect5471-5"
       sodipodi:nodetypes="ccccc" />
  </g>
  <g
     inkscape:label="logo"
     inkscape:groupmode="layer"
     id="layer1">
    <text
       xml:space="preserve"
       style="font-size:105.833px;line-height:1.25;font-family:sans-serif;letter-spacing:0px;word-spacing:0px;fill:#ffffff;fill-opacity:0.33;stroke-width:0.264583"
       x="175.53426"
       y="130.29716"
       id="text3539"><tspan
         sodipodi:role="line"
         id="tspan3537"
         style="fill:#ffffff;fill-opacity:0.33;stroke-width:0.264583"
         x="175.53426"
         y="130.29716">GXDE</tspan></text>
    <path
       style="fill:none;stroke:#ffffff;stroke-width:13.2292;stroke-linecap:butt;stroke-linejoin:miter;stroke-dasharray:none;stroke-opacity:0.27858"
       d="m 49.965371,17.517625 c -8.574017,4.817069 -15.596933,12.34743 -19.80511,21.23614 -5.682222,12.002259 -6.070758,26.325112 -1.393872,38.753652 3.05335,8.114092 8.231677,15.478252 15.104889,20.762228 6.873213,5.283975 15.455006,8.417975 24.124513,8.384795 7.54248,-0.0289 14.993662,-2.42951 21.405881,-6.40107 6.412219,-3.971557 11.808578,-9.473222 16.076488,-15.692129 3.39953,-4.953569 6.15126,-10.514565 6.83003,-16.483981 0.45404,-3.993008 -0.047,-8.101488 -1.52768,-11.837508 -1.48068,-3.736019 -3.94633,-7.088328 -7.12471,-9.547636 -3.17837,-2.459309 -7.066433,-4.009777 -11.07256,-4.327916 -4.006126,-0.318138 -8.114713,0.609691 -11.552476,2.691048 -3.054811,1.849503 -5.544472,4.573154 -7.287187,7.69012 -1.742715,3.116965 -2.752672,6.617887 -3.137106,10.168202 -0.768867,7.100632 0.929904,14.258168 3.393237,20.962056 7.391133,20.114744 21.982226,37.498454 40.511152,48.264644"
       id="path2106"
       inkscape:path-effect="#path-effect2108"
       inkscape:original-d="m 49.965371,17.517625 c -6.601438,7.022773 -13.203142,14.157692 -19.80511,21.23614 -6.601969,7.078448 -0.928984,25.836033 -1.393872,38.753652 -0.464889,12.91762 26.153199,19.431621 39.229402,29.147023 13.076203,9.71543 24.988541,-14.728522 37.482369,-22.093199 12.49388,-7.364685 4.55361,-10.989056 6.83003,-16.483981 C 114.5846,62.582335 91.456848,52.729517 81.030764,45.055248 70.604681,37.380979 76.343657,70.935765 73.999708,83.875626 71.655757,96.815461 101.00739,116.05231 114.51086,132.14027"
       clip-path="url(#clipPath2496)"
       transform="translate(42.626114,26.419383)" />
  </g>
</svg>
